<svg width="60" height="60" viewBox="0 0 60 60" xmlns="http://www.w3.org/2000/svg">
  <defs>
    <!-- Gradiente para el vaso -->
    <linearGradient id="vasoGradient" x1="0%" y1="0%" x2="0%" y2="100%">
      <stop offset="0%" style="stop-color:#FFFFFF;stop-opacity:1" />
      <stop offset="12%" style="stop-color:#FFFFFF;stop-opacity:1" />
      <stop offset="12%" style="stop-color:#1A1A1A;stop-opacity:1" />
      <stop offset="20%" style="stop-color:#1A1A1A;stop-opacity:1" />
      <stop offset="20%" style="stop-color:#FF6B35;stop-opacity:1" />
      <stop offset="100%" style="stop-color:#FF6B35;stop-opacity:1" />
    </linearGradient>
  </defs>
  
  <!-- Vaso de carajillo con forma de reloj de arena - centro muy estrecho -->
  <!-- Forma única continua con curvas cúbicas Bezier que se estrechan mucho en el centro -->
  <path d="M 18 8 L 42 8 L 42 28 C 42 29.8 40 30 30 30 C 20 30 18 29.8 18 28 L 18 30 C 18 31.8 19 35 21.5 44 C 24 46 30 46 38.5 44 C 40 35 42 31.8 42 30 L 42 28 Z" fill="url(#vasoGradient)"/>
  
  <!-- Contorno del vaso -->
  <path d="M 18 8 L 42 8 L 42 28 C 42 29.8 40 30 30 30 C 20 30 18 29.8 18 28 M 18 30 C 18 31.8 19 35 21.5 44 C 24 46 30 46 38.5 44 C 40 35 42 31.8 42 30" 
        fill="none" 
        stroke="#FFFFFF" 
        stroke-width="1" 
        opacity="0.3"/>
  
  <!-- Reflejo del vidrio -->
  <path d="M 22 9 C 22 20 23 28 30 30 C 37 28 38 20 38 9" stroke="#FFFFFF" stroke-width="0.6" opacity="0.2" fill="none"/>
  
  <!-- Línea decorativa debajo del vaso -->
  <path d="M 21.5 44 C 24 46 30 46 38.5 44" stroke="#FFFFFF" stroke-width="1.5" opacity="0.6" fill="none"/>
</svg>
